<?xml version="1.0" encoding="utf-8"?>
<!-- Uploaded to: SVG Repo, www.svgrepo.com, Generator: SVG Repo Mixer Tools -->
<svg width="800px" height="800px" viewBox="0 0 1024 1024" class="icon"  version="1.1" xmlns="http://www.w3.org/2000/svg"><path d="M87.495111 189.041778h844.458667v544.631466H87.495111z" fill="#466D77" /><path d="M144.2816 246.078578h730.885689v430.535111H144.2816z" fill="#E6E6E6" /><path d="M598.698667 246.078578L303.479467 676.625067H179.848533l295.2192-430.546489zM740.113067 246.078578L444.882489 676.625067h-80.384l295.2192-430.546489z" fill="#FFFFFF" /><path d="M707.447467 803.862756H311.990044c-34.599822 0-62.646044 28.194133-62.646044 62.953244h520.749511c0.011378-34.759111-28.046222-62.953244-62.646044-62.953244z" fill="#466D77" /><path d="M362.894222 733.661867h293.671822v70.212266H362.894222z" fill="#466D77" /><path d="M931.953778 174.2848H227.077689c-8.112356 0-14.688711 6.599111-14.688711 14.7456s6.576356 14.756978 14.688711 14.756978H917.276444v515.117511H102.183822V203.798756h80.509156c8.112356 0 14.688711-6.610489 14.688711-14.756978s-6.576356-14.756978-14.688711-14.756978H87.495111c-8.100978 0-14.677333 6.599111-14.677333 14.756978v544.631466c0 8.135111 6.576356 14.7456 14.688711 14.7456h260.721778v40.698312h-36.226845c-42.643911 0-77.323378 34.861511-77.323378 77.710222 0 8.135111 6.576356 14.7456 14.688712 14.7456h520.749511c8.112356 0 14.677333-6.610489 14.677333-14.7456 0-42.848711-34.690844-77.710222-77.334756-77.710222h-36.215466v-40.698312H931.953778c8.112356 0 14.677333-6.610489 14.677333-14.7456V189.041778c0-8.157867-6.576356-14.756978-14.677333-14.756978zM753.106489 852.0704H266.331022a48.071111 48.071111 0 0 1 45.659022-33.439289h395.457423a48.036978 48.036978 0 0 1 45.659022 33.439289z m-111.240533-62.953244H377.582933V748.430222h264.2944v40.686934h-0.011377z" fill="" /><path d="M875.178667 540.603733c8.112356 0 14.677333-6.599111 14.677333-14.756977V246.089956c0-8.146489-6.564978-14.756978-14.677333-14.756978H144.270222c-8.112356 0-14.688711 6.610489-14.688711 14.756978v430.535111c0 8.135111 6.576356 14.7456 14.688711 14.7456h730.908445c8.112356 0 14.677333-6.610489 14.677333-14.7456v-103.560534c0-8.157867-6.564978-14.756978-14.677333-14.756977s-14.688711 6.599111-14.688711 14.756977v88.803556H158.958933V260.835556h701.531023v265.0112c0 8.157867 6.576356 14.756978 14.688711 14.756977z" fill="" /><path d="M396.822756 590.859378c8.100978 0 14.677333-6.610489 14.677333-14.756978V361.358222h55.796622c8.112356 0 14.688711-6.610489 14.688711-14.756978s-6.576356-14.756978-14.688711-14.756977H323.743289c-8.112356 0-14.688711 6.610489-14.688711 14.756977s6.576356 14.756978 14.688711 14.756978h58.402133v214.755556c0 8.135111 6.576356 14.7456 14.677334 14.7456zM556.612267 386.9696l-16.827734-45.511111a14.665956 14.665956 0 0 0-18.875733-8.692622 14.779733 14.779733 0 0 0-8.647111 18.966755l16.827733 45.499734a14.688711 14.688711 0 0 0 18.864356 8.692622 14.768356 14.768356 0 0 0 8.658489-18.955378zM597.105778 581.245156c2.139022 5.779911 7.623111 9.614222 13.755733 9.614222s11.616711-3.834311 13.755733-9.614222l84.844089-229.512534c2.821689-7.634489-1.046756-16.122311-8.647111-18.966755s-16.054044 1.058133-18.875733 8.692622L610.861511 533.731556l-40.686933-110.091378a14.677333 14.677333 0 0 0-18.875734-8.692622 14.779733 14.779733 0 0 0-8.658488 18.966755l54.465422 147.330845z" fill="" /></svg>